<svg width="296" height="112" viewBox="0 0 296 112" fill="none" xmlns="http://www.w3.org/2000/svg">
<path d="M152.718 31.032C154.67 31.032 156.253 29.4578 156.253 27.516C156.253 25.5742 154.67 24 152.718 24C150.766 24 149.184 25.5742 149.184 27.516C149.184 29.4578 150.766 31.032 152.718 31.032Z" fill="#C60026"/>
<path fill-rule="evenodd" clip-rule="evenodd" d="M270.541 87.2531C269.682 87.7512 268.703 88.0084 267.709 87.9975C266.719 88.0135 265.745 87.7558 264.893 87.2531C264.416 86.9699 264.024 86.5646 263.758 86.0795C263.677 85.9242 263.638 85.7509 263.644 85.5761C263.65 85.4014 263.701 85.2311 263.792 85.0816C263.883 84.9321 264.011 84.8084 264.165 84.7224C264.318 84.6365 264.49 84.5911 264.666 84.5907C264.857 84.5905 265.044 84.6448 265.205 84.7473C265.366 84.8498 265.494 84.9961 265.574 85.1688C265.643 85.3051 265.739 85.4263 265.856 85.5252C265.973 85.624 266.109 85.6986 266.255 85.7445C266.471 85.8229 266.694 85.8818 266.921 85.9207C267.19 85.9658 267.462 85.9873 267.734 85.9852C269.248 85.9852 270.004 85.5874 270.004 84.7917C270.004 84.2706 269.505 83.9042 268.508 83.6925C267.555 83.5072 266.823 83.3616 266.312 83.2558C266.002 83.2013 265.695 83.1259 265.395 83.03C264.202 82.5651 263.606 81.681 263.606 80.3775C263.606 79.3585 264.068 78.5504 264.993 77.9532C265.815 77.4404 266.766 77.1685 267.737 77.1685C268.707 77.1685 269.658 77.4404 270.481 77.9532C270.936 78.2358 271.308 78.633 271.558 79.1046C271.678 79.3487 271.695 79.6302 271.607 79.887C271.518 80.1439 271.33 80.3551 271.084 80.4742C270.839 80.5934 270.556 80.6106 270.298 80.5222C270.04 80.4338 269.827 80.2469 269.707 80.0028C269.587 79.7595 269.382 79.5675 269.131 79.4619C268.927 79.3746 268.714 79.3089 268.495 79.2658C268.241 79.2208 267.983 79.1992 267.724 79.2013C267.25 79.1851 266.777 79.2697 266.337 79.4495C265.861 79.6604 265.624 79.9631 265.624 80.3527C265.624 80.8886 266.123 81.2649 267.121 81.4816C269.116 81.8538 270.161 82.0722 270.254 82.1367H270.236C271.4 82.6181 271.982 83.5064 271.982 84.8016C271.992 85.8256 271.512 86.6427 270.541 87.2531Z" fill="#26282C"/>
<path d="M262.521 81.231C262.3 80.3781 261.874 79.5916 261.279 78.9397C260.683 78.2877 259.937 77.7901 259.105 77.4899C258.272 77.1897 257.379 77.096 256.502 77.217C255.625 77.3379 254.791 77.6699 254.072 78.184V75.0204C254.072 74.7326 253.957 74.4565 253.753 74.2528C253.548 74.049 253.271 73.9342 252.982 73.9336H252.895C252.605 73.9349 252.328 74.0498 252.123 74.2533C251.919 74.4569 251.803 74.7325 251.802 75.0204V82.4642C251.789 83.2354 251.942 84.0004 252.25 84.7081C252.558 85.4157 253.015 86.0498 253.589 86.5678C254.164 87.0858 254.843 87.4758 255.581 87.7118C256.319 87.9477 257.099 88.0242 257.869 87.936C258.64 87.8478 259.382 87.597 260.047 87.2004C260.712 86.8037 261.284 86.2705 261.725 85.6362C262.166 85.0019 262.466 84.2812 262.605 83.5224C262.743 82.7635 262.717 81.984 262.528 81.236L262.521 81.231ZM257.247 85.742C256.619 85.7425 256.004 85.5575 255.481 85.2103C254.958 84.8632 254.55 84.3695 254.309 83.7917C254.069 83.214 254.005 82.5782 254.128 81.9648C254.25 81.3513 254.553 80.7878 254.998 80.3456C255.442 79.9033 256.009 79.6022 256.626 79.4803C257.242 79.3584 257.881 79.4212 258.462 79.6608C259.043 79.9004 259.539 80.3059 259.888 80.8262C260.237 81.3464 260.423 81.9579 260.423 82.5834C260.423 82.9982 260.341 83.4089 260.181 83.7921C260.022 84.1754 259.788 84.5236 259.493 84.8169C259.198 85.1102 258.848 85.3429 258.463 85.5016C258.077 85.6603 257.664 85.742 257.247 85.742ZM250.722 81.231C250.432 80.1105 249.789 79.1118 248.887 78.3813C247.985 77.6507 246.871 77.2267 245.709 77.1713C244.547 77.1159 243.398 77.432 242.43 78.0734C241.462 78.7148 240.725 79.6478 240.329 80.7356C239.933 81.8234 239.897 83.0089 240.227 84.1184C240.557 85.2279 241.235 86.2032 242.163 86.9013C243.09 87.5995 244.218 87.9838 245.382 87.998C246.545 88.0122 247.682 87.6555 248.626 86.9802C248.642 87.2562 248.764 87.5157 248.966 87.7054C249.169 87.895 249.436 88.0005 249.714 88H249.801C250.091 88 250.368 87.8859 250.573 87.6826C250.778 87.4793 250.893 87.2035 250.894 86.9157V82.5188C250.887 82.0844 250.829 81.6523 250.722 81.231ZM245.449 85.742C244.82 85.7425 244.205 85.5575 243.682 85.2103C243.159 84.8632 242.751 84.3695 242.51 83.7917C242.27 83.214 242.206 82.5782 242.329 81.9648C242.452 81.3513 242.754 80.7878 243.199 80.3456C243.643 79.9033 244.21 79.6022 244.827 79.4803C245.443 79.3584 246.083 79.4212 246.663 79.6608C247.244 79.9004 247.74 80.3059 248.089 80.8262C248.438 81.3464 248.624 81.9579 248.624 82.5834C248.624 83.4211 248.289 84.2245 247.694 84.8169C247.098 85.4092 246.291 85.742 245.449 85.742Z" fill="#26282C"/>
<path fill-rule="evenodd" clip-rule="evenodd" d="M237.915 73.9336H238.003C238.147 73.9352 238.291 73.9652 238.424 74.0218C238.557 74.0784 238.677 74.1605 238.779 74.2635C238.88 74.3665 238.96 74.4884 239.014 74.622C239.068 74.7557 239.094 74.8987 239.093 75.0427V86.8909C239.094 87.0349 239.068 87.1778 239.014 87.3115C238.96 87.4452 238.88 87.567 238.779 87.67C238.677 87.773 238.557 87.8552 238.424 87.9118C238.291 87.9684 238.147 87.9984 238.003 88H237.915C237.771 87.9984 237.628 87.9684 237.494 87.9118C237.361 87.8552 237.241 87.773 237.139 87.67C237.038 87.567 236.958 87.4452 236.904 87.3115C236.851 87.1778 236.824 87.0349 236.825 86.8909V75.0427C236.824 74.8987 236.851 74.7557 236.904 74.622C236.958 74.4884 237.038 74.3665 237.139 74.2635C237.241 74.1605 237.361 74.0784 237.494 74.0218C237.628 73.9652 237.771 73.9352 237.915 73.9336Z" fill="#26282C"/>
<path d="M272 52.7979C271.971 48.8601 270.608 45.0471 268.13 41.9758C265.653 38.9046 262.206 36.7547 258.347 35.8741C254.488 34.9935 250.444 35.4337 246.868 37.1234C243.292 38.8132 240.394 41.6536 238.643 45.1852C236.891 48.7168 236.389 52.7328 237.217 56.5836C238.045 60.4344 240.155 63.8946 243.206 66.4043C246.257 68.914 250.07 70.3265 254.027 70.4131C257.985 70.4998 261.857 69.2555 265.015 66.8817V66.9437C265.015 67.8651 265.383 68.7486 266.038 69.4001C266.693 70.0516 267.582 70.4176 268.508 70.4176C269.434 70.4176 270.322 70.0516 270.977 69.4001C271.632 68.7486 272 67.8651 272 66.9437V52.8004V52.7979ZM254.414 63.4674C252.322 63.4673 250.278 62.8518 248.537 61.6985C246.796 60.5451 245.438 58.9054 244.632 56.9857C243.826 55.066 243.609 52.952 244.008 50.9098C244.407 48.8677 245.404 46.9885 246.874 45.5089C248.345 44.0293 250.222 43.0152 252.27 42.5944C254.318 42.1736 256.446 42.3649 258.385 43.144C260.324 43.9232 261.989 45.2555 263.168 46.9733C264.348 48.6911 264.991 50.7176 265.015 52.7979V52.922C265.015 55.7186 263.898 58.4005 261.91 60.378C259.922 62.3555 257.225 63.4668 254.414 63.4674Z" fill="#26282C"/>
<path fill-rule="evenodd" clip-rule="evenodd" d="M233.335 52.783V66.9264C233.335 67.8477 232.968 68.7313 232.313 69.3827C231.658 70.0342 230.769 70.4002 229.843 70.4002C228.917 70.4002 228.029 70.0342 227.374 69.3827C226.719 68.7313 226.351 67.8477 226.351 66.9264V52.9319C226.351 47.1331 221.656 42.3789 215.874 42.3789C210.092 42.3789 205.397 47.1331 205.397 52.9319C205.382 59.1781 205.382 63.8471 205.397 66.9388C205.397 67.8601 205.029 68.7437 204.374 69.3951C203.719 70.0466 202.831 70.4126 201.905 70.4126C200.979 70.4126 200.09 70.0466 199.435 69.3951C198.781 68.7437 198.413 67.8601 198.413 66.9388V52.783C198.495 43.1729 206.29 35.4388 215.874 35.4388C225.458 35.4388 233.253 43.1655 233.335 52.783Z" fill="#26282C"/>
<path d="M194.92 52.7979C194.891 48.8601 193.528 45.0471 191.05 41.9758C188.572 38.9046 185.125 36.7547 181.267 35.8741C177.408 34.9935 173.364 35.4337 169.788 37.1234C166.212 38.8132 163.314 41.6536 161.563 45.1852C159.811 48.7168 159.309 52.7328 160.137 56.5836C160.965 60.4344 163.075 63.8946 166.126 66.4043C169.177 68.914 172.989 70.3265 176.947 70.4131C180.905 70.4998 184.777 69.2555 187.935 66.8817V66.9437C187.935 67.8651 188.303 68.7486 188.958 69.4001C189.613 70.0516 190.501 70.4176 191.428 70.4176C192.354 70.4176 193.242 70.0516 193.897 69.4001C194.552 68.7486 194.92 67.8651 194.92 66.9437V52.8004V52.7979ZM177.331 63.4674C175.24 63.4668 173.195 62.8509 171.455 61.6973C169.715 60.5436 168.357 58.9037 167.551 56.984C166.745 55.0642 166.529 52.9503 166.928 50.9083C167.327 48.8663 168.325 46.9874 169.795 45.508C171.266 44.0286 173.143 43.0148 175.191 42.5942C177.239 42.1736 179.367 42.365 181.306 43.1443C183.245 43.9235 184.909 45.2558 186.089 46.9736C187.268 48.6913 187.911 50.7177 187.935 52.7979V52.922C187.935 55.7194 186.818 58.4024 184.83 60.3805C182.841 62.3586 180.144 63.4699 177.331 63.4699V63.4674Z" fill="#26282C"/>
<path fill-rule="evenodd" clip-rule="evenodd" d="M152.763 35.4313C153.689 35.4313 154.578 35.7973 155.232 36.4488C155.887 37.1002 156.255 37.9838 156.255 38.9051V66.9437C156.255 67.865 155.887 68.7486 155.232 69.4001C154.578 70.0516 153.689 70.4175 152.763 70.4175C151.837 70.4175 150.949 70.0516 150.294 69.4001C149.639 68.7486 149.271 67.865 149.271 66.9437V38.9051C149.271 37.9838 149.639 37.1002 150.294 36.4488C150.949 35.7973 151.837 35.4313 152.763 35.4313ZM124.825 66.9264V52.783C124.907 43.1705 132.702 35.4338 142.286 35.4338C143.212 35.4338 144.101 35.7998 144.756 36.4512C145.411 37.1027 145.778 37.9863 145.778 38.9076C145.778 39.8289 145.411 40.7125 144.756 41.364C144.101 42.0154 143.212 42.3814 142.286 42.3814C136.504 42.3814 131.809 47.1356 131.809 52.9343C131.794 59.1822 131.794 63.8529 131.809 66.9462C131.809 67.8675 131.441 68.7511 130.786 69.4026C130.131 70.054 129.243 70.42 128.317 70.42C127.391 70.42 126.503 70.054 125.848 69.4026C125.193 68.7511 124.825 67.8675 124.825 66.9462" fill="#26282C"/>
<path d="M121.333 52.7979C121.304 48.8601 119.941 45.0471 117.463 41.9758C114.985 38.9046 111.538 36.7547 107.679 35.8741C103.821 34.9935 99.7765 35.4337 96.2006 37.1234C92.6248 38.8132 89.7267 41.6536 87.9753 45.1852C86.2239 48.7168 85.7216 52.7328 86.5498 56.5836C87.3779 60.4344 89.488 63.8946 92.5387 66.4043C95.5893 68.914 99.402 70.3265 103.36 70.4131C107.318 70.4998 111.189 69.2555 114.348 66.8817V66.9437C114.348 67.8651 114.716 68.7486 115.371 69.4001C116.026 70.0516 116.914 70.4176 117.84 70.4176C118.766 70.4176 119.655 70.0516 120.31 69.4001C120.965 68.7486 121.333 67.8651 121.333 66.9437V52.8004V52.7979ZM103.744 63.4674C101.653 63.4668 99.6081 62.8509 97.8678 61.6973C96.1275 60.5436 94.7691 58.9037 93.9636 56.984C93.158 55.0642 92.9413 52.9503 93.3406 50.9083C93.7399 48.8663 94.7375 46.9874 96.2078 45.508C97.6781 44.0286 99.5555 43.0148 101.604 42.5942C103.652 42.1736 105.779 42.365 107.718 43.1443C109.657 43.9235 111.321 45.2558 112.501 46.9736C113.681 48.6913 114.323 50.7177 114.348 52.7979V52.922C114.348 55.7194 113.231 58.4024 111.242 60.3805C109.253 62.3586 106.556 63.4699 103.744 63.4699V63.4674Z" fill="#26282C"/>
<path d="M24 74.0477L47.7127 31.032H62.6447L45.7495 62.2119C43.6635 66.0659 40.4985 69.2353 36.6382 71.3361C32.7778 73.4368 28.3877 74.3788 24 74.0477Z" fill="#26282C"/>
<path d="M86.3626 74.0477L62.6449 31.032H47.7129L64.6081 62.2119C66.6944 66.0667 69.8602 69.2367 73.7215 71.3375C77.5829 73.4383 81.974 74.3797 86.3626 74.0477Z" fill="#C60026"/>
</svg>
